<mxfile host="app.diagrams.net" modified="2020-12-10T12:16:25.278Z" agent="5.0 (X11)" etag="dDKsrUUaspBN77ruV9HC" version="13.7.7" type="github">
  <diagram id="WIVu0mPp5h0rXaQMBpwR" name="Page-1">
    <mxGraphModel dx="1350" dy="775" grid="1" gridSize="10" guides="1" tooltips="1" connect="1" arrows="1" fold="1" page="1" pageScale="1" pageWidth="850" pageHeight="1100" math="0" shadow="0">
      <root>
        <mxCell id="0" />
        <mxCell id="1" parent="0" />
        <mxCell id="wkiomEM7Kk_rvFzbw4gm-9" style="edgeStyle=orthogonalEdgeStyle;rounded=0;orthogonalLoop=1;jettySize=auto;html=1;" edge="1" parent="1" source="wkiomEM7Kk_rvFzbw4gm-1" target="wkiomEM7Kk_rvFzbw4gm-2">
          <mxGeometry relative="1" as="geometry" />
        </mxCell>
        <mxCell id="wkiomEM7Kk_rvFzbw4gm-1" value="&lt;div&gt;Start&lt;/div&gt;" style="rounded=1;whiteSpace=wrap;html=1;" vertex="1" parent="1">
          <mxGeometry x="30" y="20" width="120" height="60" as="geometry" />
        </mxCell>
        <mxCell id="wkiomEM7Kk_rvFzbw4gm-10" style="edgeStyle=orthogonalEdgeStyle;rounded=0;orthogonalLoop=1;jettySize=auto;html=1;" edge="1" parent="1" source="wkiomEM7Kk_rvFzbw4gm-2" target="wkiomEM7Kk_rvFzbw4gm-3">
          <mxGeometry relative="1" as="geometry" />
        </mxCell>
        <mxCell id="wkiomEM7Kk_rvFzbw4gm-2" value="file_reader()" style="shape=process;whiteSpace=wrap;html=1;backgroundOutline=1;" vertex="1" parent="1">
          <mxGeometry x="30" y="120" width="120" height="60" as="geometry" />
        </mxCell>
        <mxCell id="wkiomEM7Kk_rvFzbw4gm-11" style="edgeStyle=orthogonalEdgeStyle;rounded=0;orthogonalLoop=1;jettySize=auto;html=1;" edge="1" parent="1" source="wkiomEM7Kk_rvFzbw4gm-3" target="wkiomEM7Kk_rvFzbw4gm-4">
          <mxGeometry relative="1" as="geometry" />
        </mxCell>
        <mxCell id="wkiomEM7Kk_rvFzbw4gm-3" value="compare()" style="shape=process;whiteSpace=wrap;html=1;backgroundOutline=1;" vertex="1" parent="1">
          <mxGeometry x="30" y="220" width="120" height="60" as="geometry" />
        </mxCell>
        <mxCell id="wkiomEM7Kk_rvFzbw4gm-12" style="edgeStyle=orthogonalEdgeStyle;rounded=0;orthogonalLoop=1;jettySize=auto;html=1;" edge="1" parent="1" source="wkiomEM7Kk_rvFzbw4gm-4" target="wkiomEM7Kk_rvFzbw4gm-5">
          <mxGeometry relative="1" as="geometry" />
        </mxCell>
        <mxCell id="wkiomEM7Kk_rvFzbw4gm-4" value="get_factors()" style="shape=process;whiteSpace=wrap;html=1;backgroundOutline=1;" vertex="1" parent="1">
          <mxGeometry x="30" y="320" width="120" height="60" as="geometry" />
        </mxCell>
        <mxCell id="wkiomEM7Kk_rvFzbw4gm-13" style="edgeStyle=orthogonalEdgeStyle;rounded=0;orthogonalLoop=1;jettySize=auto;html=1;" edge="1" parent="1" source="wkiomEM7Kk_rvFzbw4gm-5" target="wkiomEM7Kk_rvFzbw4gm-6">
          <mxGeometry relative="1" as="geometry" />
        </mxCell>
        <mxCell id="wkiomEM7Kk_rvFzbw4gm-5" value="get_afstanden()" style="shape=process;whiteSpace=wrap;html=1;backgroundOutline=1;" vertex="1" parent="1">
          <mxGeometry x="30" y="420" width="120" height="60" as="geometry" />
        </mxCell>
        <mxCell id="wkiomEM7Kk_rvFzbw4gm-14" style="edgeStyle=orthogonalEdgeStyle;rounded=0;orthogonalLoop=1;jettySize=auto;html=1;" edge="1" parent="1" source="wkiomEM7Kk_rvFzbw4gm-6" target="wkiomEM7Kk_rvFzbw4gm-7">
          <mxGeometry relative="1" as="geometry" />
        </mxCell>
        <mxCell id="wkiomEM7Kk_rvFzbw4gm-6" value="write_file()" style="shape=process;whiteSpace=wrap;html=1;backgroundOutline=1;" vertex="1" parent="1">
          <mxGeometry x="30" y="520" width="120" height="60" as="geometry" />
        </mxCell>
        <mxCell id="wkiomEM7Kk_rvFzbw4gm-7" value="End" style="rounded=1;whiteSpace=wrap;html=1;" vertex="1" parent="1">
          <mxGeometry x="30" y="620" width="120" height="60" as="geometry" />
        </mxCell>
        <mxCell id="wkiomEM7Kk_rvFzbw4gm-31" style="edgeStyle=orthogonalEdgeStyle;rounded=0;orthogonalLoop=1;jettySize=auto;html=1;" edge="1" parent="1" source="wkiomEM7Kk_rvFzbw4gm-15" target="wkiomEM7Kk_rvFzbw4gm-16">
          <mxGeometry relative="1" as="geometry" />
        </mxCell>
        <mxCell id="wkiomEM7Kk_rvFzbw4gm-15" value="file_reader()" style="rounded=1;whiteSpace=wrap;html=1;" vertex="1" parent="1">
          <mxGeometry x="380" y="25" width="120" height="60" as="geometry" />
        </mxCell>
        <mxCell id="wkiomEM7Kk_rvFzbw4gm-30" style="edgeStyle=orthogonalEdgeStyle;rounded=0;orthogonalLoop=1;jettySize=auto;html=1;" edge="1" parent="1" source="wkiomEM7Kk_rvFzbw4gm-16" target="wkiomEM7Kk_rvFzbw4gm-18">
          <mxGeometry relative="1" as="geometry" />
        </mxCell>
        <mxCell id="wkiomEM7Kk_rvFzbw4gm-16" value="readline()" style="rounded=0;whiteSpace=wrap;html=1;" vertex="1" parent="1">
          <mxGeometry x="380" y="125" width="120" height="60" as="geometry" />
        </mxCell>
        <mxCell id="wkiomEM7Kk_rvFzbw4gm-24" style="edgeStyle=orthogonalEdgeStyle;rounded=0;orthogonalLoop=1;jettySize=auto;html=1;entryX=1;entryY=0.5;entryDx=0;entryDy=0;" edge="1" parent="1" source="wkiomEM7Kk_rvFzbw4gm-17" target="wkiomEM7Kk_rvFzbw4gm-16">
          <mxGeometry relative="1" as="geometry">
            <mxPoint x="560" y="170" as="targetPoint" />
            <Array as="points">
              <mxPoint x="670" y="590" />
              <mxPoint x="670" y="155" />
            </Array>
          </mxGeometry>
        </mxCell>
        <mxCell id="wkiomEM7Kk_rvFzbw4gm-35" style="edgeStyle=orthogonalEdgeStyle;rounded=0;orthogonalLoop=1;jettySize=auto;html=1;" edge="1" parent="1" source="wkiomEM7Kk_rvFzbw4gm-17" target="wkiomEM7Kk_rvFzbw4gm-34">
          <mxGeometry relative="1" as="geometry" />
        </mxCell>
        <mxCell id="wkiomEM7Kk_rvFzbw4gm-17" value="End?" style="rhombus;whiteSpace=wrap;html=1;" vertex="1" parent="1">
          <mxGeometry x="390" y="540" width="100" height="100" as="geometry" />
        </mxCell>
        <mxCell id="wkiomEM7Kk_rvFzbw4gm-22" style="edgeStyle=orthogonalEdgeStyle;rounded=0;orthogonalLoop=1;jettySize=auto;html=1;entryX=0.5;entryY=0;entryDx=0;entryDy=0;" edge="1" parent="1" source="wkiomEM7Kk_rvFzbw4gm-18" target="wkiomEM7Kk_rvFzbw4gm-19">
          <mxGeometry relative="1" as="geometry">
            <Array as="points">
              <mxPoint x="350" y="260" />
            </Array>
          </mxGeometry>
        </mxCell>
        <mxCell id="wkiomEM7Kk_rvFzbw4gm-25" style="edgeStyle=orthogonalEdgeStyle;rounded=0;orthogonalLoop=1;jettySize=auto;html=1;" edge="1" parent="1" source="wkiomEM7Kk_rvFzbw4gm-18" target="wkiomEM7Kk_rvFzbw4gm-20">
          <mxGeometry relative="1" as="geometry">
            <Array as="points">
              <mxPoint x="530" y="265" />
            </Array>
          </mxGeometry>
        </mxCell>
        <mxCell id="wkiomEM7Kk_rvFzbw4gm-18" value="Marker name?" style="rhombus;whiteSpace=wrap;html=1;" vertex="1" parent="1">
          <mxGeometry x="390" y="215" width="100" height="100" as="geometry" />
        </mxCell>
        <mxCell id="wkiomEM7Kk_rvFzbw4gm-23" style="edgeStyle=orthogonalEdgeStyle;rounded=0;orthogonalLoop=1;jettySize=auto;html=1;entryX=0;entryY=0.5;entryDx=0;entryDy=0;" edge="1" parent="1" source="wkiomEM7Kk_rvFzbw4gm-19" target="wkiomEM7Kk_rvFzbw4gm-17">
          <mxGeometry relative="1" as="geometry">
            <Array as="points">
              <mxPoint x="350" y="590" />
            </Array>
          </mxGeometry>
        </mxCell>
        <mxCell id="wkiomEM7Kk_rvFzbw4gm-19" value="Add alleles to current marker." style="rounded=0;whiteSpace=wrap;html=1;" vertex="1" parent="1">
          <mxGeometry x="290" y="345" width="120" height="60" as="geometry" />
        </mxCell>
        <mxCell id="wkiomEM7Kk_rvFzbw4gm-26" style="edgeStyle=orthogonalEdgeStyle;rounded=0;orthogonalLoop=1;jettySize=auto;html=1;" edge="1" parent="1" source="wkiomEM7Kk_rvFzbw4gm-20" target="wkiomEM7Kk_rvFzbw4gm-21">
          <mxGeometry relative="1" as="geometry" />
        </mxCell>
        <mxCell id="wkiomEM7Kk_rvFzbw4gm-20" value="Save last marker + alleles." style="rounded=0;whiteSpace=wrap;html=1;" vertex="1" parent="1">
          <mxGeometry x="470" y="345" width="120" height="60" as="geometry" />
        </mxCell>
        <mxCell id="wkiomEM7Kk_rvFzbw4gm-27" style="edgeStyle=orthogonalEdgeStyle;rounded=0;orthogonalLoop=1;jettySize=auto;html=1;" edge="1" parent="1" source="wkiomEM7Kk_rvFzbw4gm-21" target="wkiomEM7Kk_rvFzbw4gm-17">
          <mxGeometry relative="1" as="geometry" />
        </mxCell>
        <mxCell id="wkiomEM7Kk_rvFzbw4gm-21" value="Set current marker." style="rounded=0;whiteSpace=wrap;html=1;" vertex="1" parent="1">
          <mxGeometry x="470" y="440" width="120" height="60" as="geometry" />
        </mxCell>
        <mxCell id="wkiomEM7Kk_rvFzbw4gm-28" value="Yes" style="text;html=1;strokeColor=none;fillColor=none;align=center;verticalAlign=middle;whiteSpace=wrap;rounded=0;" vertex="1" parent="1">
          <mxGeometry x="490" y="240" width="40" height="20" as="geometry" />
        </mxCell>
        <mxCell id="wkiomEM7Kk_rvFzbw4gm-29" value="&lt;div&gt;No&lt;/div&gt;" style="text;html=1;strokeColor=none;fillColor=none;align=center;verticalAlign=middle;whiteSpace=wrap;rounded=0;" vertex="1" parent="1">
          <mxGeometry x="350" y="240" width="40" height="20" as="geometry" />
        </mxCell>
        <mxCell id="wkiomEM7Kk_rvFzbw4gm-32" value="No" style="text;html=1;strokeColor=none;fillColor=none;align=center;verticalAlign=middle;whiteSpace=wrap;rounded=0;" vertex="1" parent="1">
          <mxGeometry x="480" y="570" width="40" height="20" as="geometry" />
        </mxCell>
        <mxCell id="wkiomEM7Kk_rvFzbw4gm-33" value="Yes" style="text;html=1;strokeColor=none;fillColor=none;align=center;verticalAlign=middle;whiteSpace=wrap;rounded=0;" vertex="1" parent="1">
          <mxGeometry x="440" y="640" width="40" height="20" as="geometry" />
        </mxCell>
        <mxCell id="wkiomEM7Kk_rvFzbw4gm-34" value="&lt;div&gt;Return &lt;br&gt;&lt;/div&gt;&lt;div&gt;markers + alleles&lt;/div&gt;" style="rounded=1;whiteSpace=wrap;html=1;" vertex="1" parent="1">
          <mxGeometry x="380" y="680" width="120" height="60" as="geometry" />
        </mxCell>
      </root>
    </mxGraphModel>
  </diagram>
</mxfile>
